# xmcd CD database file
#
# Track frame offsets:
#	150
#	14353
#	33007
#	48455
#	59566
#	73226
#	85647
#	95740
#	128531
#	141958
#	157879
#	168944
#	179987
#	193157
#	202382
#	219211
#
# Disc length: 3080 seconds
#
# Revision: 0
# Processed by: cddbd v1.5.1PL0 Copyright (c) Steve Scherf et al.
# Submitted via: CDex 1.51
#
DISCID=eb0c0610
DTITLE=Various Artist - Delightful Diva's - CD3
DYEAR=2004
DGENRE=Jazz
TTITLE0=Sarah Vaughan - Summertime
TTITLE1=Nina Simone - I Loves You Porgy
TTITLE2=Dinah Washington - Willow Weep For Me
TTITLE3=Ella Fitzgerald - A Tisket - A Tasket
TTITLE4=Billie Holiday - They Can't Take That Away From Me
TTITLE5=Lena Horne - Sometimes I Feel Like A Motherless Child
TTITLE6=Peggy Lee - What Is This Thing Called Love
TTITLE7=Carmen McRae - My Foolish Heart
TTITLE8=Sarah Vaughan - It Might As Well Be Spring
TTITLE9=Lena Horne - Good For Nothing Joe
TTITLE10=Ella Fitzgerald - That Old Black Magic
TTITLE11=Dinah Washington - Ev'ry Time We Say Goodbye
TTITLE12=Billie Holiday - I Cover The Waterfront
TTITLE13=Peggy Lee - You
TTITLE14=Lena Horne - I Got It Bad (And That Ain't Good)
TTITLE15=Astrud Gilberto - Wanting You
EXTD=YEAR: 2004
EXTT0=
EXTT1=
EXTT2=
EXTT3=
EXTT4=
EXTT5=
EXTT6=
EXTT7=
EXTT8=
EXTT9=
EXTT10=
EXTT11=
EXTT12=
EXTT13=
EXTT14=
EXTT15=
PLAYORDER=
